<?xml version="1.0" encoding="UTF-8"?>
<svg xmlns="http://www.w3.org/2000/svg" xmlns:xlink="http://www.w3.org/1999/xlink" width="32px" height="px" viewBox="0 0 32 36" version="1.1">
<g id="surface1">
<path style=" stroke:none;fill-rule:nonzero;fill:rgb(0%,0%,0%);fill-opacity:1;" d="M 6.855469 2.25 L 6.855469 4.5 L 3.429688 4.5 C 1.535156 4.5 0 6.011719 0 7.875 L 0 11.25 L 32 11.25 L 32 7.875 C 32 6.011719 30.464844 4.5 28.570312 4.5 L 25.144531 4.5 L 25.144531 2.25 C 25.144531 1.003906 24.121094 0 22.855469 0 C 21.59375 0 20.570312 1.003906 20.570312 2.25 L 20.570312 4.5 L 11.429688 4.5 L 11.429688 2.25 C 11.429688 1.003906 10.40625 0 9.144531 0 C 7.878906 0 6.855469 1.003906 6.855469 2.25 Z M 32 13.5 L 0 13.5 L 0 32.625 C 0 34.488281 1.535156 36 3.429688 36 L 28.570312 36 C 30.464844 36 32 34.488281 32 32.625 Z M 32 13.5 "/>
</g>
</svg>
