<?xml version="1.0" encoding="UTF-8"?>
<svg xmlns="http://www.w3.org/2000/svg" xmlns:xlink="http://www.w3.org/1999/xlink" width="32px" height="px" viewBox="0 0 32 26" version="1.1">
<g id="surface1">
<path style=" stroke:none;fill-rule:nonzero;fill:rgb(0%,0%,0%);fill-opacity:1;" d="M 0 17.0625 C 0 21.101562 3.226562 24.375 7.199219 24.375 L 25.601562 24.375 C 29.136719 24.375 32 21.464844 32 17.875 C 32 14.730469 29.800781 12.105469 26.878906 11.507812 C 27.085938 10.964844 27.199219 10.371094 27.199219 9.75 C 27.199219 7.058594 25.050781 4.875 22.398438 4.875 C 21.414062 4.875 20.496094 5.179688 19.734375 5.699219 C 18.351562 3.261719 15.765625 1.625 12.800781 1.625 C 8.378906 1.625 4.800781 5.261719 4.800781 9.75 C 4.800781 9.886719 4.804688 10.023438 4.808594 10.160156 C 2.011719 11.160156 0 13.875 0 17.0625 Z M 0 17.0625 "/>
</g>
</svg>
