<?xml version="1.0" encoding="UTF-8"?>
<svg xmlns="http://www.w3.org/2000/svg" xmlns:xlink="http://www.w3.org/1999/xlink" width="32px" height="px" viewBox="0 0 32 32" version="1.1">
<g id="surface1">
<path style=" stroke:none;fill-rule:nonzero;fill:rgb(0%,0%,0%);fill-opacity:1;" d="M 3 4 C 1.34375 4 0 5.34375 0 7 C 0 7.945312 0.445312 8.832031 1.199219 9.398438 L 14.800781 19.601562 C 15.511719 20.132812 16.488281 20.132812 17.199219 19.601562 L 30.800781 9.398438 C 31.554688 8.832031 32 7.945312 32 7 C 32 5.34375 30.65625 4 29 4 Z M 0 11 L 0 24 C 0 26.207031 1.792969 28 4 28 L 28 28 C 30.207031 28 32 26.207031 32 24 L 32 11 L 18.398438 21.199219 C 16.976562 22.269531 15.023438 22.269531 13.601562 21.199219 Z M 0 11 "/>
</g>
</svg>
