<?xml version="1.0" encoding="UTF-8"?>
<svg xmlns="http://www.w3.org/2000/svg" xmlns:xlink="http://www.w3.org/1999/xlink" width="32px" height="px" viewBox="0 0 32 26" version="1.1">
<g id="surface1">
<path style=" stroke:none;fill-rule:nonzero;fill:rgb(0%,0%,0%);fill-opacity:1;" d="M 15.425781 6.871094 C 15.78125 6.550781 15.921875 6.046875 15.734375 5.601562 C 15.621094 5.332031 15.496094 5.066406 15.355469 4.8125 L 15.199219 4.539062 C 15.050781 4.285156 14.886719 4.039062 14.710938 3.796875 C 14.425781 3.414062 13.925781 3.285156 13.476562 3.4375 L 12.066406 3.910156 C 11.53125 3.464844 10.914062 3.097656 10.253906 2.847656 L 9.949219 1.375 C 9.855469 0.902344 9.496094 0.527344 9.023438 0.472656 C 8.695312 0.425781 8.359375 0.40625 8.019531 0.40625 L 7.984375 0.40625 C 7.644531 0.40625 7.308594 0.425781 6.980469 0.46875 C 6.511719 0.523438 6.148438 0.902344 6.054688 1.371094 L 5.75 2.847656 C 5.085938 3.101562 4.476562 3.464844 3.941406 3.910156 L 2.523438 3.441406 C 2.074219 3.289062 1.574219 3.417969 1.289062 3.804688 C 1.113281 4.042969 0.949219 4.289062 0.796875 4.542969 L 0.644531 4.8125 C 0.503906 5.066406 0.378906 5.332031 0.265625 5.605469 C 0.078125 6.046875 0.21875 6.550781 0.574219 6.875 L 1.683594 7.882812 C 1.628906 8.222656 1.601562 8.578125 1.601562 8.9375 C 1.601562 9.296875 1.628906 9.652344 1.683594 10 L 0.574219 11.003906 C 0.21875 11.324219 0.078125 11.828125 0.265625 12.273438 C 0.378906 12.542969 0.503906 12.808594 0.644531 13.066406 L 0.796875 13.328125 C 0.945312 13.589844 1.109375 13.832031 1.289062 14.070312 C 1.574219 14.457031 2.074219 14.585938 2.523438 14.433594 L 3.933594 13.960938 C 4.46875 14.40625 5.085938 14.773438 5.746094 15.019531 L 6.050781 16.5 C 6.144531 16.972656 6.503906 17.347656 6.976562 17.402344 C 7.308594 17.445312 7.648438 17.464844 7.996094 17.464844 C 8.339844 17.464844 8.679688 17.445312 9.015625 17.402344 C 9.484375 17.347656 9.84375 16.964844 9.941406 16.5 L 10.246094 15.019531 C 10.910156 14.765625 11.519531 14.40625 12.054688 13.960938 L 13.464844 14.433594 C 13.914062 14.585938 14.414062 14.457031 14.699219 14.070312 C 14.875 13.832031 15.039062 13.589844 15.191406 13.328125 L 15.34375 13.054688 C 15.484375 12.800781 15.609375 12.539062 15.726562 12.269531 C 15.910156 11.828125 15.769531 11.324219 15.414062 11 L 14.304688 9.992188 C 14.359375 9.648438 14.390625 9.292969 14.390625 8.933594 C 14.390625 8.570312 14.359375 8.214844 14.304688 7.871094 L 15.414062 6.867188 Z M 5.601562 8.9375 C 5.601562 7.589844 6.675781 6.5 8 6.5 C 9.324219 6.5 10.398438 7.589844 10.398438 8.9375 C 10.398438 10.285156 9.324219 11.375 8 11.375 C 6.675781 11.375 5.601562 10.285156 5.601562 8.9375 Z M 25.234375 25.414062 C 25.550781 25.777344 26.046875 25.917969 26.484375 25.730469 C 26.75 25.613281 27.011719 25.488281 27.261719 25.34375 L 27.53125 25.1875 C 27.78125 25.035156 28.023438 24.867188 28.261719 24.691406 C 28.640625 24.398438 28.765625 23.890625 28.613281 23.433594 L 28.148438 22.003906 C 28.589844 21.460938 28.949219 20.835938 29.195312 20.164062 L 30.648438 19.855469 C 31.113281 19.757812 31.484375 19.394531 31.539062 18.914062 C 31.578125 18.574219 31.601562 18.230469 31.601562 17.878906 C 31.601562 17.53125 31.578125 17.183594 31.539062 16.84375 C 31.484375 16.367188 31.109375 16 30.648438 15.90625 L 29.195312 15.589844 C 28.945312 14.914062 28.589844 14.296875 28.148438 13.75 L 28.613281 12.320312 C 28.765625 11.863281 28.640625 11.355469 28.261719 11.066406 C 28.023438 10.886719 27.78125 10.71875 27.53125 10.5625 L 27.265625 10.410156 C 27.015625 10.269531 26.753906 10.140625 26.484375 10.023438 C 26.050781 9.835938 25.554688 9.980469 25.234375 10.339844 L 24.246094 11.464844 C 23.90625 11.410156 23.554688 11.378906 23.199219 11.378906 C 22.84375 11.378906 22.496094 11.410156 22.15625 11.464844 L 21.164062 10.339844 C 20.851562 9.980469 20.355469 9.835938 19.914062 10.023438 C 19.648438 10.140625 19.390625 10.269531 19.136719 10.410156 L 18.875 10.5625 C 18.621094 10.714844 18.378906 10.882812 18.144531 11.066406 C 17.765625 11.355469 17.640625 11.863281 17.789062 12.320312 L 18.253906 13.75 C 17.816406 14.296875 17.453125 14.917969 17.210938 15.589844 L 15.753906 15.894531 C 15.289062 15.992188 14.921875 16.355469 14.863281 16.835938 C 14.824219 17.175781 14.804688 17.519531 14.804688 17.871094 C 14.804688 18.21875 14.824219 18.566406 14.863281 18.90625 C 14.921875 19.382812 15.296875 19.75 15.753906 19.84375 L 17.210938 20.15625 C 17.460938 20.832031 17.816406 21.449219 18.253906 21.992188 L 17.789062 23.425781 C 17.640625 23.882812 17.765625 24.390625 18.144531 24.679688 C 18.378906 24.855469 18.621094 25.023438 18.875 25.175781 L 19.144531 25.335938 C 19.394531 25.476562 19.65625 25.605469 19.921875 25.71875 C 20.355469 25.910156 20.851562 25.765625 21.171875 25.40625 L 22.160156 24.277344 C 22.5 24.335938 22.851562 24.363281 23.203125 24.363281 C 23.558594 24.363281 23.910156 24.335938 24.25 24.277344 L 25.238281 25.40625 Z M 23.199219 15.4375 C 24.527344 15.4375 25.601562 16.527344 25.601562 17.875 C 25.601562 19.222656 24.527344 20.3125 23.199219 20.3125 C 21.875 20.3125 20.800781 19.222656 20.800781 17.875 C 20.800781 16.527344 21.875 15.4375 23.199219 15.4375 Z M 23.199219 15.4375 "/>
</g>
</svg>
