<?xml version="1.0" encoding="UTF-8"?>
<svg xmlns="http://www.w3.org/2000/svg" xmlns:xlink="http://www.w3.org/1999/xlink" width="32px" height="px" viewBox="0 0 32 26" version="1.1">
<g id="surface1">
<path style=" stroke:none;fill-rule:nonzero;fill:rgb(0%,0%,0%);fill-opacity:1;" d="M 4.800781 6.5 C 4.800781 2.910156 7.664062 0 11.199219 0 C 14.734375 0 17.601562 2.910156 17.601562 6.5 C 17.601562 10.089844 14.734375 13 11.199219 13 C 7.664062 13 4.800781 10.089844 4.800781 6.5 Z M 0 24.492188 C 0 19.488281 3.988281 15.4375 8.914062 15.4375 L 13.484375 15.4375 C 18.410156 15.4375 22.398438 19.488281 22.398438 24.492188 C 22.398438 25.324219 21.734375 26 20.914062 26 L 1.484375 26 C 0.664062 26 0 25.324219 0 24.492188 Z M 30.464844 26 L 23.570312 26 C 23.839844 25.523438 24 24.96875 24 24.375 L 24 23.96875 C 24 20.886719 22.644531 18.117188 20.511719 16.261719 C 20.628906 16.253906 20.746094 16.25 20.863281 16.25 L 23.933594 16.25 C 28.390625 16.25 32 19.917969 32 24.441406 C 32 25.304688 31.308594 26 30.464844 26 Z M 21.601562 13 C 20.050781 13 18.648438 12.359375 17.636719 11.328125 C 18.621094 9.976562 19.199219 8.308594 19.199219 6.5 C 19.199219 5.140625 18.871094 3.855469 18.285156 2.726562 C 19.214844 2.035156 20.359375 1.625 21.601562 1.625 C 24.695312 1.625 27.199219 4.167969 27.199219 7.3125 C 27.199219 10.457031 24.695312 13 21.601562 13 Z M 21.601562 13 "/>
</g>
</svg>
